<?xml version="1.0" encoding="utf-8"?>
<!-- Generator: Adobe Illustrator 16.0.0, SVG Export Plug-In . SVG Version: 6.00 Build 0)  -->
<!DOCTYPE svg PUBLIC "-//W3C//DTD SVG 1.1//EN" "http://www.w3.org/Graphics/SVG/1.1/DTD/svg11.dtd">
<svg version="1.1" id="Layer_1" xmlns="http://www.w3.org/2000/svg" xmlns:xlink="http://www.w3.org/1999/xlink" x="0px" y="0px"
	 width="864px" height="864px" viewBox="0 0 864 864" enable-background="new 0 0 864 864" xml:space="preserve">
<path fill-rule="evenodd" clip-rule="evenodd" d="M594.609,174.089c-12.542-34.181-34.261-64.44-26.732-102.97
	c1.447-7.407-2.317-12.818-4.61-14.792c-5.215-4.489-15.26-0.26-19.845,3.641c-14.468,12.316-28.411,25.576-40.62,40.099
	c-8.023,9.545-14.401,12.873-25.985,6.653c-6.464-3.471-14.946-5.884-22.029-4.973c-17.805,2.299-31.585-4.021-45.656-13.98
	c-13.112-9.279-28.572-11.805-45.129-8.891c-8.632,1.519-17.927-1.267-26.891-1.009c-32.157,0.923-52.619,24.591-47.472,54.506
	c0.457,2.66,1.745,5.177,3.985,11.589c0.72-10.342,1.155-16.564,1.589-22.79c0.472,0,0.945-0.002,1.417-0.005
	c1.59,10.361,3.811,20.678,4.573,31.102c0.626,8.572-0.298,17.423-14.905,14.434c2.365,5.154,4.051,8.829,6.322,13.782
	c-3.437,1.698-6.895,4.304-10.733,5.121c-10.499,2.237-11.306,6.077-13.29,17.904c-2.502,14.914,1.994,30.427-4.113,44.973
	c-1.587,3.784,1.263,12.381,4.769,14.708c6.498,4.312,14.84,7.095,22.674,7.853c11.47,1.113,15.291,6.804,16.231,17.348
	c2.316,25.978-7.232,47.75-23.241,67.094c-13.381,16.167-27.89,31.401-41.265,47.574c-16.766,20.27-13.519,37.559,8.025,52.398
	c2.787,1.918,4.522,9.383,3.095,12.716c-6.733,15.729-13.161,31.966-22.591,46.089c-25.685,38.468-52.275,76.368-79.59,113.7
	c-18.251,24.946-38.267,50.897-41.757,81.63c-1.195,10.529-7.684,51.375-2.299,49.426c10.345,2.299,12.133,18.096,15.242,26.43
	c7.793,20.888,22.945,31.887,45.057,30.134c57.99-4.601,115.889-10.334,173.841-15.424c54.079-4.752,107.959-14.699,162.56-7.048
	c20.266,2.842,40.378,7.109,60.721,8.933c10.636,0.956,25.64,3.496,28.324-11.827c2.719-15.513-12.98-16.036-22.669-20.818
	c-1.268-0.623-2.696-1.088-4.094-1.253c-33.608-3.926-61.071-19.935-83.561-43.146c5.743-16.458,14.006-32.961,17.08-50.382
	c7.337-41.563-2.307-77.206-40.435-101.963c-16.686-10.831-31.821-24.319-46.562-37.802c-12.742-11.656-18.784-27.046-18.626-44.824
	c1.451-1.904,2.966,0.024,3.244,0.492c17.836,29.93,43.102,53.094,68.364,76.443c13.266,12.261,26.068,25.438,36.858,39.863
	c14.872,19.884,34.354,26.638,57.568,24.487c63.193-5.851,113.291-58.598,117.639-124.163c2.047-30.863-0.149-61.188-19.83-87.381
	c-4.123-5.49-5.702-10.938,1.93-15.477c41.884-24.901,55.796-65.923,62.332-110.562c4.219-28.811,11.517-55.849,30.354-79.036
	c4.57-5.627,7.494-13.566,8.635-20.843c6.465-41.248-11.129-56.548-43.209-51.688c-36.49,5.526-72.107,16.85-108.053,25.858
	C605.811,169.382,600.652,171.852,594.609,174.089z M428.699,349.145c-0.997-0.8-1.993-1.597-2.989-2.397
	c2.897-6.161,5.253-12.649,8.773-18.433c65.514-107.621,164.57-160.676,286.825-175.531c5.86-0.713,12.572,0.663,18.086,2.979
	c14.443,6.06,14.26,18.376,12.216,31.47c-1.347,8.622-2.903,15.482-13.944,16.266c-44.928,3.18-86.358,19.143-127.26,36.44
	c-13.751,5.817-26.725,11.729-42.505,8.941c-5.871-1.038-13.569,1.636-18.821,5.079c-11.895,7.794-23.068,16.78-34.025,25.895
	c-21.632,17.988-42.765,36.58-64.438,54.518C443.862,339.961,436.034,344.256,428.699,349.145z M378.812,280.258
	c8.773-2.312,15.083-3.75,21.254-5.646c20.978-6.446,43.57-11.195,56.859-30.478c8.755-12.705,19.646-20.326,32.86-27.544
	c36.175-19.752,42.434-60.312,15.713-92.085c-1.49-1.773-2.765-3.725-5.147-6.961c11.459-12.283,22.476-24.764,34.365-36.348
	c2.807-2.732,9.373-4.382,12.707-2.976c3.03,1.281,4.656,7.227,5.784,11.416c3.188,11.827,5.088,24.04,8.829,35.668
	c4.516,14.039,10.573,27.575,15.638,41.449c3.391,9.288,1.037,14.942-8.745,20.334c-48.104,26.515-91.224,59-121.741,106.06
	c-9.318,14.369-20.612,27.463-31.153,41.024c-1.429,1.837-3.745,2.986-8.429,6.597C379.799,322.236,376.351,302.695,378.812,280.258
	z M278.548,537.613c10.928,16.417,20.856,30.8,30.166,45.574c3.771,5.985,6.668,12.644,9.135,19.303
	c4.588,12.384,2.44,20.631-11.814,26.431c-40.602,16.525-80.532,34.704-120.689,52.317c-5.397,2.369-10.581,5.227-20.723,10.277
	c0.98-13.673-2.059-26.403,2.935-32.131C203.554,618.096,241.175,578.224,278.548,537.613z M656.174,455.286
	c-0.382,2.658-1.101,3.856-4.277,4.475c-28.168,1.507-54.018-7.447-73.283-27.362c-21.893-22.633-47.135-33.932-77.467-33.3
	c-23.729,0.498-47.418,3.812-71.073,6.343c-8.625,0.923-16.58,1.991-18.977-9.145c-2.458-11.424,7.777-10.627,13.455-12.59
	c81.715-28.271,152.593-5.655,216.198,47.736C648.094,437.605,655.552,444.531,656.174,455.286z M424.898,428.357
	c0.317-2.51,1.906-4.188,5.062-3.272c5.27,6.67,11.435,12.817,15.653,20.094c17.974,31.013,35.062,62.592,68.457,80.485
	c2.396,1.283,4.991,3.666,5.85,6.113c8.642,24.607,18.287,48.94,24.969,74.142c1.919,7.237-2.032,10.792-4.742,11.69
	c-4.015,1.334-10.867,0.033-13.909-2.873c-6.083-5.811-11.3-12.996-15.267-20.466c-9.281-17.476-20.336-32.142-37.96-43.082
	c-11.433-7.095-22.961-19.568-26.944-32.03C436.63,489.654,431.669,458.718,424.898,428.357z M646.075,559.766
	c-36.392,44.079-83.518-101.897-153.975-136.378c-1.103-2.093,0.095-2.812,2.464-3.642c9.372,1.34,19.884,7.432,25.464,10.536
	c19.879,11.056,30.285,23.181,55.238,17.244c3.279-0.78,7.686,0.744,10.889,2.467c26.655,14.333,51.139,31.283,67.513,57.711
	C666.51,528.433,663.257,538.955,646.075,559.766z M463.267,360.994c45.188-37.587,218.636-30.477,212.872,12.381
	c-18.646,29.295-35.898,33.462-64.49,15.779c-27.358-16.92-57.506-25.62-89.283-27.914
	C503.728,359.895,484.913,360.994,463.267,360.994z M476.102,436.202c-1.392-3.171,2.639-1.601,2.954-1.514
	c1.337,0.369,2.778,0.672,3.919,1.404c59.903,38.477,99.289,92.138,118.364,160.65c1,3.591,1.758,8.509-1.025,11.31
	c-3.91,3.935-11.308,1.65-14.376-0.934c-26.733-22.53-49.201-50.11-57.572-83.427c-6.748-26.856-19.985-47.72-35.908-68.384
	C487.422,448.772,481.73,442.74,476.102,436.202z M694.636,280.674c-19.744-2.562-26.001-3.934-47.615-5.327
	c-21.671-1.396-65.959,6.786-65.396-0.308c3.666-21.66,114.641-65.138,144.07-55.722
	C734.098,223.137,721.368,280.165,694.636,280.674z M544.646,323.793c-2.149-0.941-3.107-1.42-2.296-4.981
	c11.436-9.727,21.709-25.625,34.522-28.039c40.429-7.621,80.245-2.458,117.647,17.75c14.752,7.971,9.526,16.702,6.128,27.024
	c-4.158,12.624-12.8,8.997-20.71,5.579c-37.201-16.072-76.178-19.646-116.095-17.384
	C557.465,324.104,551.047,323.793,544.646,323.793z"/>
</svg>
