<?xml version="1.0" encoding="utf-8"?>

<!DOCTYPE svg PUBLIC "-//W3C//DTD SVG 1.1//EN" "http://www.w3.org/Graphics/SVG/1.1/DTD/svg11.dtd">
<svg version="1.1" id="Layer_1" xmlns="http://www.w3.org/2000/svg" xmlns:xlink="http://www.w3.org/1999/xlink" x="0px" y="0px"
	 viewBox="0 0 1983.995 1688.17" enable-background="new 0 0 1983.995 1688.17" xml:space="preserve">
<g>
	<path d="M1135.751,602.021c17.044-16.154,17.05-16.905,18.883-15.416c1.694,1.377-1.119,65.716-61.426,100.617
		c-23.048,13.338-47.956,22.07-73.247,29.921c-2.365,0.734-6.311,0.482-6.698,3.215c-0.436,3.088,3.612,3.191,5.753,4.318
		c132.451,69.742,128.495,67.351,136.051,70.557c7.494,3.18,13.95-0.519,19.844-4.215c73.681-46.206,88.842-66.122,177.328-9.849
		c3.72,2.365,5.099,2.079,6.901-1.824c25.461-55.158,47.521-111.298,45.721-173.506c-1.684-58.226-16.545-83.914-43.069-110.576
		c-31.474-31.639-39.202,15.766-75.686,18.813c-21.53,1.799-39.204-6.508-55.409-19.73c-35.33-28.825-22.935-75.225,11.411-90.161
		c16.712-7.268,39.133,10.841,39.902,31.247c0.208,5.527,0.024,11.068,0.135,16.601c0.024,1.181-0.759,3.043,0.931,3.35
		c0.766,0.139,2.029-1.329,2.759-2.299c12.428-16.516,6.982-19.659-3.042-61.417c-0.439-1.828-2.292-4.438-0.141-5.807
		c1.99-1.266,3.656,1.232,5.417,2.261c37.31,21.806,56.972,56.951,92.569,106.105c1.276,1.763,1.664,5.204,4.49,4.596
		c3.888-0.838,4.313-55.329,53.063-46.576c37.115,6.664,10.952,7.18,84.76,11.781c47.901,2.986,57.081,46.295,65.934,58.524
		c4.071-3.102,25.212-33.497,28.023-37.772c4.892-7.441,10.38-1.4,15.495-1.051c5.26,0.358,2.736,4.652,2.681,7.391
		c-0.727,36.393-11.914,43.162-18.345,58.379c-10.43,24.681-5.804,41.375,15.966,56.939c23.433,16.754,82.97,38.994,89.212,41.111
		c5.05,1.712,5.79,3.716,3.836,8.475c-3.948,9.62,6.922,10.592-149.109-49.622c-57.282-22.106-55.257-23.922-58.759-16.621
		c-43.823,91.377-58.487,178.218-79.959,275.221c-3.224,14.565-0.892,28.201,6.783,40.918
		c219.246,363.267,335.451,554.146,366.331,604.603c19,31.046,46.253,53.52,76.574,72.628
		c36.984,23.306,47.448,19.522,43.927,48.308c-0.937,7.658-4.605,10.144-11.729,10.903c-88.359,9.409-101.654-13.622-119.703-24.959
		c0,0,0.163,0.172,0.163,0.172c-42.006-24.886-86.152-45.161-132.139-61.509c-33.184-11.794-39.666-34.593-30.453-63.773
		c57.068-180.757-214.914-281.619-301.468-372.881c-84.873-89.49-69.498-107.297-90.34-80.523
		c-72.295,92.873-124.399,318.918-299.792,479.023l0.167-0.172c-162.21,143.384-383.06,190.258-435.705-25.744
		c-52.154-213.986-31.181-447.657-32.315-476.308c-0.176-4.452-2.117-3.174-4.336-1.502
		c-49.502,37.308-101.518,75.733-151.304,117.406c-40.354,33.778-80.404,38.613-122.208,20.925
		c-109.668-46.403-129.96-150.228-141.283-176.48c-7.126-16.522-6.546-34.426-6.612-52.021c0-33.817-3.702-69.753,6.264-102.574
		c18.875-62.164,38.717-120.067,86.659-163.477c4.281-3.876,4.976-5.935,0.765-10.346c-65.494-68.611-75.466-165.463-66.307-260.427
		c15.611-161.858-71.404-203.832,2.7-305.45C104.447,51.73,136.6,52.34,167.891,62.676
		c85.016,28.083,209.619,107.835,298.112,215.614c1.628,1.983,3.008,5.457,5.557,4.937c2.358-0.481,2.261-4.179,3.042-6.573
		c31.403-96.321,38.041-129.843,76.592-223.355c4.258-10.329,17.947-12.469,25.478-3.886
		C721.623,214.596,712.011,213.251,719.64,203.19c45.076-59.451,105.087-100.082,179.667-102.496
		c35.908-1.162,70.546,4.7,103.882,17.99c54.617,21.775,82.779,63.009,87.327,120.814c4.617,58.68-6.287,93.368,24.317,125.183
		c28.552,29.681,0.951,47.942-4.521,112.84c-0.882,10.468-0.55,21.045-0.624,31.574c-0.335,47.741-39.447,39.454-106.105,39.659
		c-6.298,0.019-8.479,1.714-7.81,7.899c2.675,24.739-2.35,67.134,55.121,77.74c32.814,6.056,59.356-11.097,85.048-32.514
		L1135.751,602.021z M814.66,1027.342c0.118,0.869,0.037,0.339,0.274,1.736c-70.275,68.666-27.699,204.656-24.752,205.576
		c2.572,0.803,47.775-56.068,51.486-61.799c0.599,0.132,1.198,0.264,1.797,0.396c2.633-3.796,5.266-7.593,7.895-11.393l0.108,0.307
		l-0.28-0.135c7.402-8.523,14.804-17.046,22.206-25.569l-0.17,0.162c25.464-30.912,26.713-31.012,31.734-39.692
		c0.609,0.043,1.219,0.087,1.828,0.13c17.883-21.696,35.766-43.391,53.649-65.087l-0.12,0.214c2.661-3.204,5.322-6.408,7.982-9.612
		l-0.169,0.164c115.676-138.899,109.576-126.158,97.46-130.393c-152.817-53.416-140.175-52.791-139.221-39.888
		c5.353,72.351,13.007,133.882-60.627,152.208C843.282,1010.256,829.742,1014.318,814.66,1027.342z M272.471,905.633
		c-44.646,51.607-86.99,114.942-111.276,180.003c-0.611,1.638-4.097,5.944,1.577,4.777c10.682-2.197,21.831-3.923,30.683-11.011
		c50.816-40.69,65.645-58.104,96.311-94.77l-0.182,0.168c79.757-116.43,15.619-51.179,139.072-189.789
		c1.001-1.124,2.682-3.196,2.358-3.668c-2.332-3.397-64.64,6.947-158.718,114.45L272.471,905.633z M144.081,826.626
		c0.01-0.123,0.02-0.247,0.03-0.37c-0.077,0.087-0.154,0.174-0.232,0.26c0.123-0.024,0.245-0.047,0.368-0.071
		c-8.682,7.812-53.376,51.108-55.673,67.066c-2.653,18.428-4.153,37.019-5.995,55.54c-0.248,2.495-0.952,7.077,4.903,10.158
		c8.891,4.679,12.272,1.833,15.643-0.653c15.241-11.244,112.708-72.906,304.689-195.891c5.715-3.661,3.322-5.903,0.694-9.058
		c-2.026-2.433-4.217-0.738-6.431-0.081c-115.991,34.433-72.894,20.979-122.9,16.401C224.15,764.89,181.12,788.676,144.081,826.626z
		 M86.776,135.58c-4.241,22.402,3.715,38.976,22.568,50.984c262.897,167.442,238.818,157.113,253.484,157.734
		c60.389,2.56,70.951,41.58,206.018,254.643c8.739,13.785,4.357,12.171,20.418,5.834c7.012-2.767,4.053-2.823-8.882-42.069
		c-19.742-59.901-39.959-119.533-71.363-174.75C435.377,258.47,329.984,162.413,176.225,99.143
		C127.326,79.022,96.664,83.356,86.776,135.58z M539.775,404.505c115.452,265.217,97.041,267.377,111.547,266.462
		c2.095-0.132,4.424,0.156,4.689-2.893c1.069-12.326,4.546-24.071-2.393-36.703c-27.32-49.728-26.034-98.827,6.17-146.359
		c1.525-2.251,5.143-4.331,3.456-7.231c-1.28-2.2-4.883-0.798-7.449-0.917c-16.641-0.774-33.343-2.276-47.333-12.206
		c-35.419-25.143-35.123-88.811,4.708-101.623c18.258-5.873,47.858,4.081,47.9,6.414c0.034,1.872-44.405,34.041-45.386,37.638
		c-0.852,3.121,6.147,12.018,8.151,14.411c3.34,3.99,6.742,5.628,11.856,4.316c14.326-3.678,35.123-11.482,42.911-24.989
		c12.55-21.764,20.315-45.411,19.916-70.43c-1.786-111.816-65.796-198.878-100.131-212.01c-26.061-9.967-31.597-6.14-42.629,21.091
		C480.47,325.324,483.63,275.529,539.775,404.505z M153.062,722.315c-11.267,6.705-17.546,15.703-21.036,27.756
		c-1.154,3.984-0.841,5.522,3.455,6.223c51.255,8.36,96.473,6.704,138.127-27.24c51.716-42.142,109.274-50.693,173.751-36.354
		c72.734,16.174,98.432,50.785,140.514,31.137c1.306-0.61,1.642-1.131,1.237-2.742c-6.092-24.23-18.649-32.848-52.561-51.466
		c-22.772-12.502-47.049-22.197-72.238-28.577C306.328,601.037,195.779,696.894,153.062,722.315z M268.516,1133.035
		c7.786-0.119,13.883-1.529,18.136-7.668c55.98-80.802,174.694-125.969,195.955-178.266
		c69.129-170.04,65.902-157.435,59.843-162.801c-3.987-3.531-4.997,1.081-6.58,2.651c-52.887,52.45-93.624,126.768-170.985,160.001
		c-15.334,6.587-29.285,14.54-37.815,29.229c-23.435,40.356-45.646,81.384-66.856,122.965c-4.576,8.971-5.041,17.181-1.648,26.231
		C260.512,1130.569,263.101,1134.369,268.516,1133.035z M130.518,574.472c9.243,14.329,16.817,29.705,27.685,43.021
		c11.809,14.469,38.934,23.111,54.694,15.741c92.901-43.445,186.797-40.299,285.485-15.243c1.75,0.444,4.13,2.2,5.087,0.797
		c1.948-2.858-24.814-32.293-69.08-53.178C278.053,491.847,122.081,561.392,130.518,574.472z M106.547,483.032
		c2.074,11.069,7.731,15.59,18.826,14.368c196.922-21.695,183.533,6.642,263.375,14.775c-12.03-48.595-36.871-82.428-85.069-93.05
		c-60.94-13.43-122.273-9.955-172.698,6.506C104.362,434.321,99.925,447.691,106.547,483.032z M109.203,282.536
		c5.192,83.833,3.294,79.085,9.111,79.392c147.669,7.795,140.17,18.78,219.061,29.332c2.291,0.307,6.089,0.868,6.706-0.167
		c0.627-1.052-74.266-105.261-228.199-158.733C103.794,228.16,105.619,224.679,109.203,282.536z M670.538,624.637
		c0.76-8.028-7.853-100.634-8.98-100.87C656.871,522.782,627.205,574.295,670.538,624.637z M1249.259,445.397
		c-4.35,0.358-10.512,11.069-8.423,14.213c4.603,6.927,8.507,16.214,15.926,18.51c4.743,1.468,10.093-7.729,16.647-12.584
		c1.187-0.879,1.525-1.09-0.424-1.499C1264.544,462.266,1263.344,456.673,1249.259,445.397z"/>
	<path d="M1135.943,601.879l-0.148-0.171C1135.75,602.105,1135.697,602.061,1135.943,601.879z"/>
	<path d="M946.08,1517.911l0.307,0.115C946.212,1517.671,946.286,1517.699,946.08,1517.911z"/>
	<path d="M1800.109,1617.402l-0.086,0.219C1800.337,1617.555,1800.312,1617.617,1800.109,1617.402z"/>
	<path d="M968.296,1022.577l-0.247-0.1C968.152,1022.812,968.084,1022.783,968.296,1022.577z"/>
	<path d="M816.429,1027.604c-0.032-0.654-0.065-1.307-0.097-1.961C816.365,1026.296,816.397,1026.95,816.429,1027.604z"/>
	<path d="M814.805,1029.17c-0.035-0.619-0.07-1.237-0.105-1.855c0.619,0.034,1.239,0.068,1.859,0.102
		C815.974,1028.002,815.39,1028.586,814.805,1029.17z"/>
	<path d="M960.434,1031.974l-0.354,0.167C960.364,1032.21,960.285,1032.24,960.434,1031.974z"/>
	<path d="M906.816,1097.141c-0.655-0.031-1.31-0.061-1.964-0.092C905.506,1097.079,906.161,1097.11,906.816,1097.141z"/>
	<path d="M873.394,1136.461l-0.241-0.105C873.246,1136.695,873.18,1136.665,873.394,1136.461z"/>
	<path d="M843.529,1173.074c-0.648-0.034-1.296-0.067-1.945-0.101C842.233,1173.006,842.881,1173.04,843.529,1173.074z"/>
	<path d="M289.766,984.632c-0.133,0.002-0.266,0.004-0.399,0.007C289.636,984.84,289.541,984.84,289.766,984.632z"/>
	<path d="M272.295,905.793l0.233,0.13C272.452,905.554,272.519,905.589,272.295,905.793z"/>
</g>
</svg>
