<?xml version="1.0"?><svg width="640" height="480" xmlns="http://www.w3.org/2000/svg" xmlns:xlink="http://www.w3.org/1999/xlink">
 <defs>
  <linearGradient id="linearGradient601">
   <stop stop-color="#424242" offset="0" id="stop602"/>
   <stop stop-color="#000000" offset="1" id="stop603"/>
  </linearGradient>
  <linearGradient id="linearGradient592">
   <stop stop-color="#f5fff5" stop-opacity="0.967742" offset="0" id="stop593"/>
   <stop stop-color="#000000" offset="1" id="stop594"/>
  </linearGradient>
  <linearGradient y2="0.084615" y1="2.007692" xlink:href="#linearGradient601" x2="0.620253" x1="1.050633" id="linearGradient579"/>
  <linearGradient y2="0.876923" y1="0.4" xlink:href="#linearGradient592" x2="0.903226" x1="0.494624" id="linearGradient591"/>
  <linearGradient y2="2.020833" y1="0.333333" xlink:href="#linearGradient592" x2="0.494881" x1="0.430034" id="linearGradient595"/>
  <linearGradient y2="0.923077" y1="0.3" xlink:href="#linearGradient592" x2="0.133333" x1="0.537778" id="linearGradient596"/>
  <linearGradient y2="1.284615" y1="0.069231" xlink:href="#linearGradient592" x2="0.849765" x1="0.42723" id="linearGradient597"/>
  <linearGradient y2="0.823077" y1="-2.015385" xlink:href="#linearGradient601" x2="0.362832" x1="1.743363" id="linearGradient598"/>
  <linearGradient y2="1.315385" y1="0.361538" xlink:href="#linearGradient601" x2="1.900524" x1="0.455497" id="linearGradient599"/>
  <linearGradient y2="0.53125" y1="-0.041667" xlink:href="#linearGradient601" x2="0.805461" x1="0.447099" id="linearGradient600"/>
  <linearGradient y2="0.589844" x2="0.628906" y1="0.175781" x1="0.621094" id="svg_12">
   <stop stop-color="#ffffff" offset="0"/>
   <stop stop-color="#dee0df" offset="1"/>
  </linearGradient>
 </defs>
 <g>
  <title>Layer 1</title>
  <g transform="rotate(45, 322.434, 238.621)" id="svg_13">
   <path stroke-width="0.375" fill-rule="evenodd" fill="url(#linearGradient600)" id="path575" d="m16.22687,251.238556c2.244438,-2.787079 1.159775,-1.215607 6.066584,-4.807526c4.563278,-4.727356 9.847557,-10.907013 14.906761,-14.090775c5.264858,-4.322662 11.46339,-5.730621 22.33028,-6.608566c2.416306,-0.282455 4.715889,-0.299927 8.416,-0.449875c9.303658,-0.560577 39.381516,-3.903427 51.019363,-5.788895c19.162529,-4.206284 50.346092,-13.18222 80.245827,-18.978409c8.584045,-1.75296 20.669373,-4.830856 31.004074,-7.246292c10.419418,-2.860962 34.026947,-10.889038 41.061768,-12.557617c9.304901,-2.387772 25.845703,-5.040512 41.919708,-6.765823c21.220795,-5.528259 33.921814,-9.201645 46.506134,-13.802444c10.229706,-4.397064 42.750854,-20.188263 64.884888,-28.427521c14.570984,-5.183212 32.293091,-11.4263 51.532349,-12.634811c6.772034,-0.419266 39.920288,-1.368477 59.880432,8.281494c7.129639,2.345535 16.243286,8.268311 18.237732,8.626541c2.485596,-0.2854 11.0401,-3.618057 20.061462,-4.830887c8.772461,-0.759995 18.945496,-1.25502 20.365417,-0.690125c0.448853,1.777725 -2.836975,1.833084 -4.255493,4.140732c0.273193,1.955383 1.013184,3.910721 1.519836,5.866058c-1.270996,1.547699 -3.709106,1.770477 -4.863403,3.450607c1.052979,1.272491 3.935791,-0.734192 4.559387,1.035202c6.39093,4.884293 9.555542,16.27977 17.021851,23.80925c7.170349,11.70491 20.076416,16.084747 20.614868,19.040268c-0.702515,3.334991 -21.300659,-1.265533 -31.86145,-6.272995c-20.824707,-7.812653 -38.781555,-28.851151 -48.314209,-26.693512c-24.784424,8.042953 -44.729401,17.103317 -70.230774,35.320053c-35.087982,27.728989 -67.666656,60.3414 -103.650848,88.680817c-23.748383,17.969482 -52.694641,35.938934 -81.4617,46.583282c-30.559418,9.793976 -46.421249,13.280212 -81.461685,16.562958c-11.262253,0.230042 -24.854614,0.867035 -36.475372,0.690125c-28.151154,-2.734222 -58.811661,-10.555328 -74.774529,-15.527771c-18.471451,-8.51181 -34.792023,-17.837524 -53.801186,-33.470978c-9.40712,-9.55545 -15.587925,-14.837952 -25.712004,-25.614227c-2.182247,-4.388611 -8.845482,-9.387604 -5.292068,-16.828339z"/>
   <path stroke-width="0.5" fill-rule="evenodd" fill="url(#linearGradient579)" id="path580" d="m230.844971,193.045197c1.194717,-3.814514 3.285507,-5.340363 4.256226,-9.917801c3.136169,-22.378601 5.376312,-41.19696 8.064468,-61.795471c1.568069,-23.480568 4.256226,-39.840698 8.064453,-55.183594c2.674759,-8.967407 4.837662,-15.191456 9.632553,-20.089897c2.34198,-1.682571 5.634338,-3.005493 6.867523,-0.552223c-0.212769,9.082882 0.366455,17.806137 1.420929,30.305595c2.513824,15.016617 7.24527,32.191086 12.768707,48.826073c4.294678,12.491653 9.064575,24.264038 14.784821,35.856598c6.150177,10.860855 13.726013,12.011429 12.114563,14.780411c-4.726532,2.129471 -23.331787,5.344116 -33.242523,7.032532c-9.769867,2.167633 -21.109741,4.55986 -30.873993,7.414246c-4.163452,1.546371 -12.961685,4.934113 -13.857727,3.323532z"/>
   <path fill="url(#linearGradient599)" fill-rule="evenodd" stroke-width="0.125" id="path581" d="m209.981873,342.012848c4.06868,6.256073 8.707825,11.972504 11.920792,18.444458c2.469894,4.811584 3.133331,9.946991 2.56076,14.758636c-0.96019,4.084106 -2.110565,8.707916 -6.303421,10.633362c-6.122192,1.056091 -12.24437,-0.046478 -16.940399,-1.688721c-5.546997,-2.302979 -8.621964,-3.526581 -13.788651,-6.261261c-6.56604,-7.15567 -13.132095,-14.311432 -19.698135,-21.467133c0.525284,-4.842407 1.050568,-9.684875 1.575867,-14.527283c2.26413,0.370117 4.528275,0.524353 6.792419,0.78653c11.483749,0.097595 22.587173,-0.344452 33.880768,-0.678589z"/>
   <path fill="url(#linearGradient595)" fill-rule="evenodd" stroke-width="0.375" id="path583" d="m71.190979,253.487793c-0.029625,1.136688 0.742455,2.628845 2.15905,3.697815c1.135101,0.34729 -0.304802,2.595001 3.757233,5.155396c3.168594,0.373779 9.861153,3.730865 16.613396,4.308044c5.229958,0.236908 12.729546,-0.543213 20.706963,-2.136993c5.288208,-1.899963 12.368233,-4.884735 12.63932,-7.937347c-1.733871,-3.289764 -4.602554,-5.7659 -9.681183,-7.021545c-7.440147,-1.661575 -14.940056,-1.560272 -22.081581,-2.408203c-4.661217,-0.949341 -8.904327,-1.152908 -13.68499,-0.339325c-3.495987,0.916504 -9.889198,3.663025 -10.428207,6.682159z"/>
   <path fill="url(#linearGradient591)" fill-rule="evenodd" stroke-width="0.125" id="path585" d="m424.537628,204.24263c-6.952972,-2.931747 -14.303253,-1.353088 -21.454895,0c-11.919373,4.284821 -29.844879,12.974762 -36.354126,18.266937c-11.124786,9.095901 -22.050903,20.221436 -27.414642,34.729782c-12.118042,26.460724 -8.939514,31.948334 -13.707306,37.210419c-2.317627,6.690369 -5.429932,12.027588 -8.740875,13.531036c-14.43573,8.870392 -31.453949,14.132477 -47.478943,19.169067c-23.110352,6.239319 -45.227478,7.066193 -67.543213,7.893097c-10.462585,0.075195 -21.918457,0.826904 -32.381027,0.902069c-1.920349,2.104828 -2.847397,3.533112 -4.767761,5.637939c16.753372,2.255219 32.712128,0.45105 45.49234,0.676544c15.830292,-1.746979 32.04599,-3.056458 47.876266,-6.991028c14.891296,-2.830963 29.525665,-7.849518 43.903076,-13.305573c18.244659,-7.575836 35.333069,-17.339264 51.779205,-28.269409c16.370636,-10.405365 30.814301,-21.977417 44.101746,-34.132874c10.641357,-8.795166 20.383514,-17.882065 30.125641,-26.385574c0,-1.277924 0.513824,-3.576736 -0.256989,-4.125473c-1.332275,-0.335297 -2.92157,1.516953 -4.767731,2.931732c-17.910889,17.664093 -37.234833,32.848969 -56.815796,45.554596c-3.337433,0.866028 -5.775635,0.565338 -6.158325,-0.902039c0.117828,-3.90448 3.190399,-8.538147 5.363708,-11.275909c15.336273,-15.515686 34.012665,-27.385361 49.862823,-42.171829c4.011536,-4.920837 7.894623,-8.674957 8.822968,-10.970718c1.413116,-1.831161 1.927032,-5.704102 0.513855,-7.972794z"/>
   <path stroke-width="0.125" fill-rule="evenodd" fill="url(#linearGradient597)" id="path586" d="m537.637268,158.672516c-0.618835,-0.537781 0.434387,-5.783997 1.166931,-7.283829c0.449341,-0.724167 5.319153,-1.05835 6.455566,-0.742477c0.940857,0.04126 4.607361,3.15065 4.265564,4.049973c-1.206421,0.381073 -4.091492,1.369385 -6.230896,2.063263c-1.861511,0.630798 -4.912415,1.829895 -5.657166,1.913071z"/>
   <path fill="url(#linearGradient596)" fill-rule="evenodd" stroke-width="0.125" id="path587" d="m18.749548,263.43161c0.729525,-0.995514 8.106003,2.257233 17.02836,3.391663c8.817081,1.006561 18.364819,3.757904 21.916172,4.707275c1.812531,0.662567 3.927387,1.553864 7.352406,2.330811c0.884453,-1.306244 0.761108,-2.383759 1.040886,-3.918854c1.856155,-0.479797 11.371536,2.930176 22.801743,5.081726c8.707657,3.379272 20.13636,20.944916 29.650246,31.76059c2.545067,4.118622 4.384674,8.008423 3.503227,10.639801c-2.704506,4.605286 -5.409012,9.210571 -8.113518,13.815857c-1.018326,-0.126373 -10.199783,-2.998505 -12.729805,-3.811279c-11.87545,-5.464172 -24.456337,-12.186829 -36.23101,-20.167969c-6.862026,-4.888733 -14.328743,-10.235107 -20.283752,-16.039093c-8.639969,-8.361908 -15.667465,-14.778931 -23.09808,-22.797638c-1.382338,-2.045624 -1.353764,-2.832825 -2.836874,-4.992889z"/>
   <path stroke-width="0.125" fill-rule="evenodd" fill="url(#linearGradient598)" id="path582" d="m111.066109,321.600128c0.089638,3.154572 5.019867,22.947144 9.815636,38.007813c2.95813,9.718201 8.768158,24.647919 11.83255,29.459869c2.165298,3.948242 16.045654,22.133087 25.682022,30.68103c5.557724,5.546021 11.384354,10.328735 18.286667,12.974548c3.989014,0.559662 8.784775,0.661469 11.160248,-1.068451c4.033813,-4.019592 8.73996,-12.313171 9.681183,-17.095917c1.030869,-9.056793 0.582657,-15.365967 -1.344604,-21.217224c-1.792831,-8.242676 -4.392395,-15.722107 -7.798737,-23.812134c-3.495987,-9.209381 -8.336578,-17.808197 -13.311615,-25.796478c-2.823669,-5.138916 -3.764908,-10.125244 -6.050735,-10.837555c-5.91629,-4.426636 -12.101486,-7.021545 -18.555603,-9.158539c-7.126434,-2.391388 -14.387299,-3.561615 -21.782639,-4.426575c-4.48204,-0.763245 -8.426224,-0.610596 -12.235954,-0.457947c-1.792809,0.305267 -4.526833,-0.305298 -5.378418,2.747559z"/>
   <path fill="url(#svg_12)" fill-rule="evenodd" stroke-width="0.125" id="path589" d="m277.600739,246.427429c3.935883,-0.082352 9.399231,-0.090607 10.395294,-0.572769c2.125,-0.703781 7.020355,-5.538574 8.571136,-7.925079c3.907379,-5.631241 7.360657,-17.52858 9.307434,-19.835785c7.194031,-2.086334 13.134003,-15.751114 19.804901,-20.979156c3.192261,-2.299606 8.022308,-5.533142 8.872162,-7.657547c-0.01532,-2.513489 -1.908478,-5.061218 -3.871338,-6.636246c-3.884705,-1.688263 -8.680542,-1.21019 -11.764282,-1.525391c-6.412689,-0.885086 -14.608215,0.393127 -18.445129,1.686539c-6.670349,3.47847 -14.717712,7.827515 -19.916962,12.833542c-2.386688,2.288101 -6.187134,6.626541 -7.168091,9.833008c-0.285919,1.218323 1.235565,4.405731 2.97821,14.550003c3.073883,3.943726 6.752563,7.432877 9.221771,11.831253c0.942261,2.857941 0.947357,5.103577 0.816284,8.110016c-0.457397,1.916107 -1.330902,3.418213 -2.659912,4.139481c-1.792358,1.053055 -4.09433,1.432083 -6.141479,2.148132z"/>
  </g>
 </g>
</svg>