<?xml version="1.0" standalone="no"?>
<!DOCTYPE svg PUBLIC "-//W3C//DTD SVG 20010904//EN"
 "http://www.w3.org/TR/2001/REC-SVG-20010904/DTD/svg10.dtd">
<svg version="1.0" xmlns="http://www.w3.org/2000/svg"
 width="1260.000000pt" height="1280.000000pt" viewBox="0 0 1260.000000 1280.000000"
 preserveAspectRatio="xMidYMid meet">
<metadata>
Created by potrace 1.15, written by Peter Selinger 2001-2017
</metadata>
<g transform="translate(0.000000,1280.000000) scale(0.100000,-0.100000)"
fill="#000000" stroke="none">
<path d="M3173 12444 c-51 -25 -112 -99 -149 -179 -19 -41 -34 -78 -34 -83 0
-37 -115 -242 -176 -315 -13 -16 -42 -59 -64 -95 -22 -38 -64 -88 -95 -116
-124 -107 -193 -237 -301 -565 -19 -58 -48 -126 -64 -151 -17 -26 -30 -59 -30
-75 0 -15 -14 -52 -31 -83 -32 -54 -32 -55 -26 -156 4 -55 10 -125 13 -155 l7
-53 -54 7 c-30 4 -103 23 -162 41 -109 34 -311 74 -374 74 -34 0 -61 -29 -35
-38 33 -11 185 -148 337 -303 94 -96 198 -195 231 -221 60 -47 61 -49 67 -105
7 -59 50 -260 106 -497 17 -70 31 -134 31 -142 0 -30 -96 -109 -199 -162 -58
-30 -136 -74 -172 -96 -36 -23 -110 -68 -163 -101 -54 -33 -145 -91 -204 -129
-59 -38 -125 -79 -147 -91 -176 -94 -264 -169 -285 -243 -12 -46 -12 -133 1
-192 5 -25 14 -85 20 -135 5 -49 19 -139 31 -200 17 -92 20 -131 14 -235 -3
-69 -11 -234 -16 -367 -11 -312 -4 -340 86 -336 l44 1 0 -61 c1 -173 121 -491
207 -547 21 -13 63 -44 93 -68 30 -25 65 -48 77 -53 27 -10 68 3 99 32 39 36
37 3 -4 -99 -70 -171 -86 -238 -122 -514 -11 -86 -32 -196 -46 -244 -31 -108
-101 -282 -124 -309 -28 -32 -50 -82 -50 -112 0 -15 -9 -52 -20 -81 -40 -105
-22 -117 68 -42 56 46 64 60 118 181 l59 131 3 -54 c2 -40 -6 -79 -33 -157
-35 -104 -43 -163 -26 -190 13 -20 55 -17 95 7 l34 20 6 -46 c49 -405 48 -393
28 -416 -25 -27 -34 -135 -16 -191 7 -22 20 -98 29 -170 9 -71 25 -191 36
-265 38 -269 49 -408 34 -450 -31 -86 10 -275 103 -482 l30 -66 -39 -26 c-21
-14 -47 -43 -58 -64 -56 -109 -30 -216 80 -331 45 -47 69 -80 69 -95 0 -22
-18 -75 -42 -123 -12 -25 -4 -150 18 -263 37 -187 45 -282 35 -390 -16 -162
-40 -327 -56 -391 -25 -94 -20 -133 17 -165 44 -37 121 -71 189 -85 l56 -11
-5 -47 c-4 -47 -4 -48 45 -79 29 -19 82 -39 133 -51 106 -25 411 -61 514 -61
68 0 445 43 486 55 28 8 324 44 452 55 217 18 344 65 375 138 27 65 -6 268
-53 322 -7 8 -22 40 -34 70 -12 30 -27 62 -34 70 -17 20 -36 77 -36 109 0 14
-9 42 -19 61 -37 67 -43 85 -42 124 0 22 -4 55 -11 73 -10 29 -9 38 6 65 11
17 19 44 18 59 0 22 13 40 60 84 41 38 58 61 54 72 -4 8 -2 21 4 28 7 8 7 21
1 36 -10 27 -109 117 -164 149 -35 21 -36 22 -31 73 3 29 21 122 40 207 19 85
41 193 49 239 36 210 -37 441 -203 642 -42 52 -87 108 -99 124 -55 78 -76 281
-48 460 40 264 62 658 36 674 -10 7 -11 35 -2 154 6 80 11 151 11 156 0 7 14
9 39 5 34 -5 43 -3 64 20 13 14 30 47 37 72 10 36 15 42 22 30 12 -21 81 -56
111 -56 13 0 32 9 41 19 15 16 16 25 6 63 -16 63 -39 133 -71 219 -50 134 -77
260 -94 435 -9 93 -20 187 -25 209 -13 57 -13 57 20 23 27 -27 35 -29 73 -24
57 9 77 9 109 1 49 -13 76 3 140 81 67 81 94 139 76 161 -7 9 9 33 67 95 103
111 136 162 191 298 25 63 47 117 49 119 2 2 32 -11 66 -28 102 -51 114 -44
158 79 21 57 48 107 136 255 12 18 28 42 37 52 9 10 28 42 42 71 29 57 203
279 296 377 32 33 88 95 125 138 37 43 83 89 103 102 66 45 160 144 186 197
32 64 33 99 2 164 -26 56 -92 110 -256 209 -52 32 -117 77 -145 99 -116 97
-522 365 -692 457 -34 18 -64 41 -66 50 -6 22 -80 69 -108 69 -12 0 -37 11
-55 25 -18 14 -41 25 -51 25 -10 0 -38 20 -62 44 l-44 45 7 108 c3 59 10 121
14 136 7 26 9 23 20 -35 17 -80 43 -171 48 -166 2 3 -1 20 -6 39 -6 19 -15 63
-21 99 -5 36 -12 76 -15 90 -4 22 -3 22 10 -5 19 -39 19 -29 0 55 -14 63 -14
77 0 146 9 42 16 97 17 123 0 36 5 22 20 -62 27 -157 57 -252 75 -235 3 4 1
66 -5 139 -12 148 -14 239 -5 263 5 14 9 14 23 4 13 -10 12 -8 -2 8 -16 19
-17 38 -11 200 l6 179 33 35 c17 19 54 67 80 105 98 140 200 270 267 338 37
38 68 74 68 78 0 34 -183 -7 -368 -82 -67 -27 -127 -49 -132 -49 -4 0 -11 30
-15 68 -11 105 -32 200 -54 235 -10 18 -26 57 -34 87 -19 75 -118 247 -220
383 -46 62 -104 150 -128 197 -35 69 -63 104 -144 186 -55 55 -129 118 -165
139 -76 46 -106 78 -170 184 -26 44 -60 95 -74 112 -15 17 -49 78 -75 134 -58
123 -90 168 -136 189 -41 20 -52 20 -92 0z m-674 -3134 c12 -38 12 -37 -40
-68 l-36 -22 -7 87 c-3 47 -9 98 -12 112 -5 22 0 19 40 -24 25 -27 50 -66 55
-85z m-39 -549 c0 -5 -46 -49 -102 -97 -148 -128 -177 -159 -205 -221 -45 -99
-20 -210 66 -287 11 -11 21 -27 21 -37 0 -18 -52 -222 -64 -250 -9 -20 40 -59
73 -59 19 0 19 -2 6 -39 -14 -41 -38 -204 -50 -341 -11 -132 -34 -239 -70
-327 -19 -48 -35 -95 -35 -105 0 -25 26 -33 57 -19 14 6 27 10 30 8 6 -6 -50
-117 -58 -117 -4 0 -22 36 -40 80 -30 72 -38 83 -86 115 -39 26 -63 35 -95 35
-24 0 -59 3 -80 6 l-36 6 19 32 c10 17 19 47 19 67 0 35 -38 168 -82 289 -68
184 -110 370 -128 562 -6 56 -13 124 -16 149 l-6 46 118 63 c103 54 177 96
404 229 62 36 60 35 206 133 145 98 134 91 134 79z m1670 -104 c58 -43 145
-127 153 -149 9 -25 86 -78 113 -78 13 0 66 -33 125 -77 191 -146 447 -309
727 -466 29 -16 52 -33 50 -38 -8 -23 -199 -237 -295 -329 -144 -140 -210
-196 -388 -330 -163 -123 -250 -194 -277 -225 -28 -32 -22 -70 18 -115 31 -34
34 -42 23 -56 -20 -25 -89 -60 -164 -84 -64 -21 -78 -30 -155 -109 -87 -89
-145 -138 -239 -206 l-54 -39 -31 40 c-17 21 -53 63 -80 92 -27 29 -50 63 -51
76 0 21 -47 88 -80 116 -8 7 -15 22 -15 34 0 24 -26 51 -80 84 -48 29 -200
192 -200 215 0 3 19 7 42 9 67 5 62 28 -21 109 -72 69 -110 131 -111 181 0 24
49 229 65 268 4 12 16 15 40 12 20 -2 38 -8 41 -13 12 -20 20 -7 16 25 -6 50
15 103 58 150 21 23 53 73 73 111 19 39 49 88 67 110 17 22 56 81 85 130 54
92 161 235 234 314 23 24 41 46 41 50 0 8 183 191 192 191 3 0 4 -16 2 -36 -3
-22 -1 -33 6 -29 5 3 10 26 10 51 0 24 3 44 8 44 4 0 27 -15 52 -33z m-283
-3594 c-3 -10 -5 -2 -5 17 0 19 2 27 5 18 2 -10 2 -26 0 -35z m-897 -91 c0
-54 0 -54 -22 -40 -14 10 -27 32 -32 58 -8 37 -7 45 10 57 16 12 20 11 31 -4
7 -9 13 -41 13 -71z m-1186 -14 c-25 -45 -31 -13 -8 39 15 32 18 35 21 16 2
-12 -4 -37 -13 -55z m1000 -92 c7 -30 98 -120 142 -141 17 -8 44 -15 58 -15
21 0 26 -6 32 -37 3 -21 19 -105 35 -187 23 -114 27 -152 18 -163 -17 -20 -3
-148 21 -192 10 -20 33 -98 50 -175 17 -76 44 -180 60 -230 39 -125 48 -159
60 -246 8 -54 24 -105 60 -180 41 -86 62 -155 119 -385 38 -154 77 -318 86
-365 9 -47 28 -128 41 -180 14 -52 36 -143 49 -203 l23 -107 -41 -29 c-79 -55
-93 -80 -89 -164 2 -19 10 -31 27 -39 14 -6 25 -19 25 -29 0 -10 13 -23 30
-31 21 -9 30 -20 31 -38 0 -14 3 -38 5 -55 2 -16 6 -70 7 -120 3 -87 3 -91
-25 -119 -15 -16 -30 -37 -33 -46 -3 -9 -17 -23 -31 -31 -14 -7 -35 -26 -46
-41 -10 -15 -25 -28 -32 -28 -7 0 -21 -8 -30 -19 -10 -11 -37 -21 -71 -25 -30
-3 -76 -13 -102 -22 -58 -19 -295 -132 -352 -168 -22 -14 -43 -26 -46 -26 -3
0 -5 35 -4 78 0 42 -6 136 -15 207 -9 72 -23 200 -31 285 -18 175 -38 302 -60
374 -22 72 -80 172 -119 206 -44 39 -50 79 -20 123 13 17 33 67 46 110 l22 78
-19 77 c-20 76 -21 77 -70 104 -27 15 -49 33 -47 40 2 7 14 40 27 73 36 90 58
201 52 255 -3 26 -20 85 -38 131 -28 73 -41 93 -101 152 l-69 68 12 57 c6 31
33 118 59 192 26 74 62 196 80 270 18 74 39 145 47 158 20 32 37 193 22 203
-8 5 1 57 34 190 24 101 55 239 68 307 13 67 26 122 30 122 4 0 10 -11 13 -24z"/>
<path d="M10825 11889 c-32 -17 -99 -68 -150 -113 -73 -65 -122 -97 -241 -160
-174 -91 -317 -183 -429 -274 -164 -134 -267 -292 -459 -704 -34 -74 -46 -138
-28 -164 4 -6 15 -15 26 -21 10 -6 15 -13 10 -16 -5 -3 -36 17 -69 44 -112 92
-208 125 -221 75 -3 -14 -2 -30 2 -37 4 -7 39 -107 79 -224 60 -177 78 -219
114 -265 23 -29 51 -70 61 -91 24 -45 73 -83 101 -76 15 4 24 -5 45 -48 15
-29 58 -95 96 -145 l70 -92 -12 -75 c-15 -94 -7 -106 13 -18 9 37 18 69 22 73
3 3 18 -6 32 -21 l27 -26 -18 -58 c-10 -32 -21 -65 -24 -73 -5 -12 -3 -13 10
-3 8 7 21 32 28 55 19 61 23 27 12 -95 -6 -56 -8 -129 -5 -161 l6 -59 17 34
c10 19 28 52 40 74 l22 40 -6 -75 c-6 -74 -4 -75 23 -7 8 21 9 20 19 -13 9
-34 9 -33 9 20 -1 61 27 149 36 114 3 -14 5 -12 6 9 0 15 6 27 11 27 13 0 13
-61 -1 -154 l-11 -75 -52 -25 c-76 -38 -129 -87 -240 -226 -164 -205 -255
-312 -316 -370 -69 -67 -100 -114 -165 -248 -42 -87 -47 -104 -35 -113 13 -8
10 -13 -12 -30 -18 -14 -28 -30 -28 -47 0 -28 -63 -105 -223 -270 l-80 -82
-51 33 c-28 18 -68 43 -88 56 -20 12 -50 34 -66 49 -16 15 -116 72 -223 127
-168 87 -658 361 -730 409 -14 9 -29 13 -32 9 -4 -4 -46 13 -93 38 -79 40 -93
44 -158 43 -62 0 -81 -5 -146 -38 -41 -21 -178 -80 -305 -131 -126 -51 -258
-111 -293 -133 -35 -23 -80 -46 -100 -53 -37 -12 -154 -62 -182 -77 -8 -5 -42
-63 -76 -129 -58 -113 -62 -126 -69 -211 l-7 -91 26 -7 c15 -3 32 -1 40 5 8 7
25 9 39 6 29 -8 54 13 64 53 3 15 13 38 22 51 l16 25 7 -44 c11 -65 41 -78 83
-35 20 19 25 34 25 76 0 48 3 55 39 88 21 20 43 45 49 57 8 16 24 23 61 27 27
3 63 12 78 20 16 8 68 16 119 19 l91 4 -13 -33 c-20 -46 -17 -66 9 -91 41 -39
59 -29 188 98 83 83 137 127 174 145 29 13 63 37 74 51 17 21 25 25 51 19 17
-4 43 -17 59 -30 15 -14 56 -36 90 -51 33 -15 61 -30 61 -35 0 -12 102 -69
124 -69 24 0 73 -30 118 -72 34 -33 42 -37 128 -77 25 -11 74 -45 110 -75 35
-30 85 -65 109 -77 25 -13 84 -47 131 -76 46 -29 91 -51 98 -48 16 6 117 -51
192 -109 85 -67 117 -80 186 -80 l60 0 -27 -80 c-17 -50 -38 -151 -54 -265
-14 -101 -28 -188 -31 -192 -3 -5 -33 -9 -68 -9 -78 0 -163 -28 -236 -79 -30
-21 -87 -55 -126 -75 -44 -23 -109 -72 -174 -131 -57 -52 -142 -122 -190 -154
-48 -33 -104 -79 -125 -103 -21 -24 -68 -75 -105 -115 -60 -64 -69 -78 -78
-130 -6 -32 -18 -88 -26 -126 -11 -53 -12 -95 -5 -201 5 -73 13 -145 18 -159
11 -30 55 -46 80 -30 22 14 40 69 40 129 1 50 43 210 60 227 10 10 23 -150 19
-230 -3 -46 1 -57 37 -110 42 -60 67 -73 104 -53 26 13 28 67 5 112 -15 29
-15 39 1 138 l18 106 65 69 65 70 -27 -50 c-37 -71 -39 -97 -16 -214 17 -85
27 -112 56 -152 20 -27 44 -54 54 -59 25 -13 66 3 75 30 8 25 -3 77 -22 107
-12 18 -13 34 -4 93 6 39 9 76 5 81 -3 5 20 47 52 94 51 75 63 87 121 115 49
25 94 61 185 152 66 66 124 116 128 111 5 -4 -5 -60 -21 -123 -32 -126 -38
-249 -18 -337 11 -49 11 -51 -56 -209 -192 -452 -265 -677 -324 -999 -43 -236
-54 -361 -48 -540 3 -93 8 -183 11 -200 14 -102 16 -160 6 -240 -7 -49 -12
-137 -12 -195 -1 -134 23 -202 93 -271 88 -86 213 -93 363 -21 l85 40 6 -41
c11 -71 49 -139 126 -227 103 -119 143 -183 130 -209 -8 -14 -7 -30 3 -58 22
-62 66 -143 80 -149 7 -3 99 -177 205 -388 l193 -383 -35 -47 c-20 -25 -38
-54 -42 -64 -8 -28 11 -69 36 -77 13 -4 30 -16 38 -26 9 -10 27 -20 41 -22 27
-4 43 -29 82 -127 38 -97 48 -148 35 -179 -16 -36 -71 -91 -91 -91 -9 0 -16
-4 -16 -9 0 -4 -36 -11 -81 -15 -44 -4 -106 -13 -137 -21 -76 -18 -267 -84
-372 -128 -110 -45 -231 -82 -354 -106 -78 -16 -105 -26 -128 -47 -15 -15 -28
-35 -28 -44 0 -9 -4 -20 -9 -26 -6 -5 -13 -27 -16 -49 -6 -38 -4 -42 40 -79
95 -78 308 -150 530 -177 98 -12 271 -7 750 21 72 4 207 9 300 9 194 2 288 16
362 54 69 36 86 73 78 172 -8 83 -41 200 -67 234 -10 13 -18 30 -18 38 0 20
-46 107 -65 123 -19 16 -55 83 -55 103 0 22 -50 106 -69 117 -18 9 -45 64 -55
112 -4 15 -18 40 -32 55 -23 24 -25 34 -20 72 3 24 2 49 -4 56 -11 14 16 82
52 127 18 22 19 30 8 42 -7 9 -10 22 -7 29 3 8 -2 30 -11 50 -13 27 -36 48
-90 82 -71 43 -74 44 -124 35 -28 -6 -53 -8 -55 -6 -4 3 -60 232 -137 551 -34
142 -72 255 -119 353 -26 56 -114 132 -151 132 -21 0 -54 23 -130 93 l-103 92
5 50 c2 28 7 72 11 99 l6 49 130 32 c72 18 198 51 281 73 l152 40 35 -42 c39
-47 86 -66 160 -66 49 0 48 0 117 80 l45 52 80 -5 c105 -7 171 -20 192 -39 10
-8 41 -23 68 -33 28 -10 62 -27 76 -36 14 -10 50 -28 80 -39 30 -12 58 -26 64
-31 5 -5 18 -9 28 -9 11 0 43 -20 71 -44 28 -24 100 -66 160 -94 106 -50 108
-52 101 -79 -4 -16 -9 -70 -10 -122 -4 -89 1 -122 34 -231 33 -108 126 -237
186 -260 111 -42 166 25 326 404 33 79 34 97 14 224 -18 111 -19 112 -136 283
-51 74 -140 220 -197 324 -57 105 -134 242 -170 305 -36 63 -79 140 -96 170
-34 64 -85 124 -137 162 -31 22 -42 25 -73 18 -40 -9 -131 -66 -161 -102 -27
-30 -65 -86 -65 -93 0 -3 -23 -35 -52 -70 -35 -45 -62 -68 -87 -76 -20 -7 -52
-23 -71 -35 -21 -15 -49 -24 -72 -24 -20 0 -49 -5 -65 -11 -42 -16 -146 6
-228 48 -75 39 -150 52 -188 31 -36 -19 -85 -81 -92 -114 -5 -30 -8 -31 -67
-38 -33 -3 -107 -6 -162 -6 l-102 0 27 108 c40 160 127 597 145 730 23 178 21
356 -6 471 -26 108 -21 130 33 156 65 30 118 95 146 178 34 98 30 291 -11 529
-18 111 -19 119 -3 135 43 43 -20 264 -79 279 -14 3 -26 10 -26 15 0 10 28 12
208 14 79 1 126 5 134 13 15 15 138 16 245 1 121 -16 202 14 247 91 20 32 21
48 18 220 -2 130 2 216 13 288 40 267 59 632 44 857 -8 133 -1 238 23 310 10
30 20 41 44 47 17 4 39 17 50 29 17 19 19 39 20 239 0 135 4 223 10 232 21 26
25 42 5 18 -11 -14 -21 -20 -21 -13 0 6 11 20 25 31 13 11 21 23 17 28 -4 5
-3 6 2 1 13 -10 60 72 107 182 5 13 12 21 14 19 9 -9 -24 -90 -65 -160 -48
-84 -35 -80 20 5 22 34 40 57 40 51 0 -5 -7 -19 -15 -30 -8 -10 -15 -28 -15
-38 0 -11 -6 -27 -13 -35 -7 -9 -19 -29 -25 -46 l-12 -30 27 30 c16 17 36 41
46 55 20 27 18 16 -8 -45 -20 -48 -17 -45 27 20 19 28 53 97 76 155 24 58 47
113 52 122 6 10 10 24 10 31 0 7 7 38 16 67 13 45 18 51 26 36 6 -10 8 -33 5
-52 -5 -29 -52 -140 -91 -215 -10 -19 -10 -26 -1 -26 6 0 12 5 12 11 0 14 83
198 94 210 13 14 11 -111 -2 -137 -9 -19 -7 -18 10 3 l21 25 0 -40 c0 -55 -24
-144 -52 -190 -12 -22 -17 -35 -10 -31 7 4 1 -19 -13 -51 -13 -32 -18 -49 -10
-38 26 37 47 60 39 45 -5 -11 -4 -12 5 -4 17 16 70 171 76 223 3 24 10 51 16
60 8 12 9 6 5 -24 -3 -23 -2 -34 3 -27 11 18 51 -31 51 -62 0 -21 50 -129 57
-122 2 2 -1 23 -6 47 l-10 44 20 -25 19 -25 -5 34 c-3 18 -12 43 -20 55 -20
28 -19 70 4 115 11 21 26 69 33 107 10 54 14 63 19 44 6 -23 7 -23 8 7 1 17 5
33 10 35 6 2 6 21 1 48 -4 25 -11 79 -14 120 l-6 75 17 -32 c9 -18 20 -33 25
-33 12 0 10 9 -16 64 -13 28 -26 78 -30 111 l-6 60 112 55 c129 63 202 119
384 291 72 68 145 137 162 152 39 35 41 54 6 63 -49 12 -153 -3 -424 -61 l-55
-12 -8 46 c-12 77 -36 202 -52 276 -8 39 -21 102 -29 140 -20 93 -62 249 -74
272 -6 10 -20 48 -32 83 -28 84 -80 192 -175 362 -41 76 -104 204 -139 285
-83 191 -92 208 -133 249 -43 43 -70 54 -132 54 -35 0 -65 -9 -106 -31z m509
-2215 c3 -9 6 -32 5 -52 l-1 -37 -13 35 c-16 42 -18 70 -6 70 5 0 12 -7 15
-16z m-289 -151 c-2 -21 -8 -60 -12 -88 l-7 -50 -7 69 c-8 68 0 106 21 106 6
0 8 -16 5 -37z m-91 -135 c-2 -123 -35 -322 -70 -420 -8 -23 -12 -43 -10 -46
8 -7 45 126 69 248 l24 115 12 -67 c15 -76 10 -117 -27 -238 -38 -125 -66
-162 -78 -100 -4 16 -10 28 -14 25 -4 -2 -18 7 -31 21 l-23 25 22 67 c29 86
58 230 73 357 9 77 17 104 32 118 10 9 20 17 21 17 2 0 2 -55 0 -122z m145
105 c0 -10 -4 -36 -8 -58 -9 -40 -9 -39 -10 18 0 32 3 57 9 57 6 0 10 -8 9
-17z m-213 -70 c-33 -237 -76 -433 -61 -278 8 77 35 273 42 303 10 43 25 23
19 -25z m-911 -95 c-21 -116 -36 -154 -29 -73 3 33 10 76 15 95 5 19 9 49 9
66 0 17 3 34 8 38 14 15 13 -38 -3 -126z m803 35 c-12 -83 -16 -86 -17 -17 -1
33 2 64 6 67 16 17 19 3 11 -50z m12 -159 c-20 -104 -30 -138 -30 -98 0 15 32
225 42 279 1 6 3 -9 5 -32 2 -23 -5 -90 -17 -149z m-596 100 c11 -4 16 -19 16
-48 0 -67 -18 -116 -46 -126 -51 -20 -54 -15 -38 43 8 28 19 60 24 69 6 10 10
26 10 36 0 29 9 36 34 26z m466 -131 c0 -26 -3 -34 -11 -26 -9 9 -3 63 7 63 2
0 4 -17 4 -37z m145 -170 c-6 -41 -17 -54 -30 -33 -3 5 2 36 12 67 14 44 19
52 21 34 2 -13 1 -44 -3 -68z m-1365 -612 c-6 -12 -15 -21 -21 -21 -5 0 -2 11
7 25 20 30 31 26 14 -4z m-87 -156 c-15 -30 -29 -53 -31 -51 -4 5 46 106 53
106 3 0 -7 -25 -22 -55z m982 -921 l0 -467 -140 7 c-77 4 -141 9 -143 11 -2 1
-4 83 -5 182 -1 150 1 186 17 228 27 75 70 158 147 282 38 61 81 137 94 167
14 31 26 56 27 56 2 0 3 -210 3 -466z m-430 -431 c46 -22 44 -33 -5 -33 -36 0
-40 3 -40 25 0 30 0 30 45 8z"/>
<path d="M11235 9009 c-4 -6 -5 -12 -2 -15 2 -3 7 2 10 11 7 17 1 20 -8 4z"/>
</g>
</svg>
